# Blender 5.0.1
# www.blender.org
mtllib pyramid.mtl
o Cube
v -0.300000 -1.000000 1.000000
v -0.300000 1.000000 0.000000
v -0.300000 -1.000000 -1.000000
v 0.300000 -1.000000 1.000000
v 0.300000 1.000000 0.000000
v 0.300000 -1.000000 -1.000000
vn -1.0000 -0.0000 -0.0000
vn -0.0000 0.4472 -0.8944
vn 1.0000 -0.0000 -0.0000
vn -0.0000 0.4472 0.8944
vn -0.0000 -1.0000 -0.0000
vt 0.375000 0.000000
vt 0.625000 0.250000
vt 0.375000 0.250000
vt 0.375000 0.500000
vt 0.625000 0.750000
vt 0.375000 0.750000
vt 0.375000 1.000000
vt 0.125000 0.750000
vt 0.125000 0.500000
vt 0.625000 0.500000
vt 0.625000 1.000000
s 0
f 1/1/1 2/2/1 3/3/1
f 2/2/2 6/4/2 3/3/2
f 6/4/3 5/5/3 4/6/3
f 5/5/4 1/7/4 4/6/4
f 6/4/5 1/8/5 3/9/5
f 2/2/2 5/10/2 6/4/2
f 5/5/4 2/11/4 1/7/4
f 6/4/5 4/6/5 1/8/5
