# Blender 5.0.1
# www.blender.org
mtllib grid.mtl
o Cube
v 1.000000 -2.693260 0.793332
v 1.000000 2.605784 -0.965684
v 1.000000 -2.605784 0.965684
v 1.000000 2.693260 -0.793332
v -1.000000 -2.693260 0.793332
v -1.000000 2.605784 -0.965684
v -1.000000 -2.605784 0.965684
v -1.000000 2.693260 -0.793332
v 1.000000 -2.605784 0.965684
v -1.000000 -2.605784 0.965684
v 1.000000 -2.693260 0.793332
v -1.000000 -2.693260 0.793332
v 1.000000 -2.693260 0.484313
v 1.000000 2.605784 -1.274703
v 1.000000 -2.605784 0.656665
v 1.000000 2.693260 -1.102351
v -1.000000 -2.693260 0.484313
v -1.000000 2.605784 -1.274703
v -1.000000 -2.605784 0.656665
v -1.000000 2.693260 -1.102351
v 1.000000 -2.605784 0.656665
v -1.000000 -2.605784 0.656665
v 1.000000 -2.693260 0.484313
v -1.000000 -2.693260 0.484313
v 1.000000 -2.693260 0.175294
v 1.000000 2.605784 -1.583722
v 1.000000 -2.605784 0.347646
v 1.000000 2.693260 -1.411370
v -1.000000 -2.693260 0.175294
v -1.000000 2.605784 -1.583722
v -1.000000 -2.605784 0.347646
v -1.000000 2.693260 -1.411370
v 1.000000 -2.605784 0.347646
v -1.000000 -2.605784 0.347646
v 1.000000 -2.693260 0.175294
v -1.000000 -2.693260 0.175294
v 1.000000 -2.693260 -0.133725
v 1.000000 2.605784 -1.892741
v 1.000000 -2.605784 0.038627
v 1.000000 2.693260 -1.720389
v -1.000000 -2.693260 -0.133725
v -1.000000 2.605784 -1.892741
v -1.000000 -2.605784 0.038627
v -1.000000 2.693260 -1.720389
v 1.000000 -2.605784 0.038627
v -1.000000 -2.605784 0.038627
v 1.000000 -2.693260 -0.133725
v -1.000000 -2.693260 -0.133725
v 1.000000 -2.693260 -0.442744
v 1.000000 2.605784 -2.201760
v 1.000000 -2.605784 -0.270392
v 1.000000 2.693260 -2.029408
v -1.000000 -2.693260 -0.442744
v -1.000000 2.605784 -2.201760
v -1.000000 -2.605784 -0.270392
v -1.000000 2.693260 -2.029408
v 1.000000 -2.605784 -0.270392
v -1.000000 -2.605784 -0.270392
v 1.000000 -2.693260 -0.442744
v -1.000000 -2.693260 -0.442744
v 1.000000 -2.693260 -0.751763
v 1.000000 2.605784 -2.510779
v 1.000000 -2.605784 -0.579411
v 1.000000 2.693260 -2.338427
v -1.000000 -2.693260 -0.751763
v -1.000000 2.605784 -2.510779
v -1.000000 -2.605784 -0.579411
v -1.000000 2.693260 -2.338427
v 1.000000 -2.605784 -0.579411
v -1.000000 -2.605784 -0.579411
v 1.000000 -2.693260 -0.751763
v -1.000000 -2.693260 -0.751763
v 1.000000 -2.693260 -1.060782
v 1.000000 2.605784 -2.819798
v 1.000000 -2.605784 -0.888429
v 1.000000 2.693260 -2.647446
v -1.000000 -2.693260 -1.060782
v -1.000000 2.605784 -2.819798
v -1.000000 -2.605784 -0.888429
v -1.000000 2.693260 -2.647446
v 1.000000 -2.605784 -0.888429
v -1.000000 -2.605784 -0.888429
v 1.000000 -2.693260 -1.060782
v -1.000000 -2.693260 -1.060782
v 1.000000 -2.693260 -1.369800
v 1.000000 2.605784 -3.128817
v 1.000000 -2.605784 -1.197448
v 1.000000 2.693260 -2.956465
v -1.000000 -2.693260 -1.369800
v -1.000000 2.605784 -3.128817
v -1.000000 -2.605784 -1.197448
v -1.000000 2.693260 -2.956465
v 1.000000 -2.605784 -1.197448
v -1.000000 -2.605784 -1.197448
v 1.000000 -2.693260 -1.369800
v -1.000000 -2.693260 -1.369800
v 1.000000 -2.693260 -1.678820
v 1.000000 2.605784 -3.437836
v 1.000000 -2.605784 -1.506467
v 1.000000 2.693260 -3.265483
v -1.000000 -2.693260 -1.678820
v -1.000000 2.605784 -3.437836
v -1.000000 -2.605784 -1.506467
v -1.000000 2.693260 -3.265483
v 1.000000 -2.605784 -1.506467
v -1.000000 -2.605784 -1.506467
v 1.000000 -2.693260 -1.678820
v -1.000000 -2.693260 -1.678820
v 1.000000 -2.693260 -1.987839
v 1.000000 2.605784 -3.746855
v 1.000000 -2.605784 -1.815486
v 1.000000 2.693260 -3.574503
v -1.000000 -2.693260 -1.987839
v -1.000000 2.605784 -3.746855
v -1.000000 -2.605784 -1.815486
v -1.000000 2.693260 -3.574503
v 1.000000 -2.605784 -1.815486
v -1.000000 -2.605784 -1.815486
v 1.000000 -2.693260 -1.987839
v -1.000000 -2.693260 -1.987839
v 1.000000 -2.693260 -2.296858
v 1.000000 2.605784 -4.055874
v 1.000000 -2.605784 -2.124505
v 1.000000 2.693260 -3.883521
v -1.000000 -2.693260 -2.296858
v -1.000000 2.605784 -4.055874
v -1.000000 -2.605784 -2.124505
v -1.000000 2.693260 -3.883521
v 1.000000 -2.605784 -2.124505
v -1.000000 -2.605784 -2.124505
v 1.000000 -2.693260 -2.296858
v -1.000000 -2.693260 -2.296858
v 1.000000 -2.693260 -2.605876
v 1.000000 2.605784 -4.364892
v 1.000000 -2.605784 -2.433524
v 1.000000 2.693260 -4.192540
v -1.000000 -2.693260 -2.605876
v -1.000000 2.605784 -4.364892
v -1.000000 -2.605784 -2.433524
v -1.000000 2.693260 -4.192540
v 1.000000 -2.605784 -2.433524
v -1.000000 -2.605784 -2.433524
v 1.000000 -2.693260 -2.605876
v -1.000000 -2.693260 -2.605876
v 1.000000 -2.693260 -2.914895
v 1.000000 2.605784 -4.673912
v 1.000000 -2.605784 -2.742543
v 1.000000 2.693260 -4.501559
v -1.000000 -2.693260 -2.914895
v -1.000000 2.605784 -4.673912
v -1.000000 -2.605784 -2.742543
v -1.000000 2.693260 -4.501559
v 1.000000 -2.605784 -2.742543
v -1.000000 -2.605784 -2.742543
v 1.000000 -2.693260 -2.914895
v -1.000000 -2.693260 -2.914895
v 1.000000 -2.693260 -3.223914
v 1.000000 2.605784 -4.982930
v 1.000000 -2.605784 -3.051562
v 1.000000 2.693260 -4.810578
v -1.000000 -2.693260 -3.223914
v -1.000000 2.605784 -4.982930
v -1.000000 -2.605784 -3.051562
v -1.000000 2.693260 -4.810578
v 1.000000 -2.605784 -3.051562
v -1.000000 -2.605784 -3.051562
v 1.000000 -2.693260 -3.223914
v -1.000000 -2.693260 -3.223914
v 1.000000 -2.693260 -3.532933
v 1.000000 2.605784 -5.291949
v 1.000000 -2.605784 -3.360581
v 1.000000 2.693260 -5.119597
v -1.000000 -2.693260 -3.532933
v -1.000000 2.605784 -5.291949
v -1.000000 -2.605784 -3.360581
v -1.000000 2.693260 -5.119597
v 1.000000 -2.605784 -3.360581
v -1.000000 -2.605784 -3.360581
v 1.000000 -2.693260 -3.532933
v -1.000000 -2.693260 -3.532933
v 1.000000 -2.693260 -3.841952
v 1.000000 2.605784 -5.600968
v 1.000000 -2.605784 -3.669600
v 1.000000 2.693260 -5.428616
v -1.000000 -2.693260 -3.841952
v -1.000000 2.605784 -5.600968
v -1.000000 -2.605784 -3.669600
v -1.000000 2.693260 -5.428616
v 1.000000 -2.605784 -3.669600
v -1.000000 -2.605784 -3.669600
v 1.000000 -2.693260 -3.841952
v -1.000000 -2.693260 -3.841952
v 1.000000 -2.693260 -4.150971
v 1.000000 2.605784 -5.909987
v 1.000000 -2.605784 -3.978619
v 1.000000 2.693260 -5.737635
v -1.000000 -2.693260 -4.150971
v -1.000000 2.605784 -5.909987
v -1.000000 -2.605784 -3.978619
v -1.000000 2.693260 -5.737635
v 1.000000 -2.605784 -3.978619
v -1.000000 -2.605784 -3.978619
v 1.000000 -2.693260 -4.150971
v -1.000000 -2.693260 -4.150971
v 1.000000 -2.693260 -4.459990
v 1.000000 2.605784 -6.219007
v 1.000000 -2.605784 -4.287638
v 1.000000 2.693260 -6.046654
v -1.000000 -2.693260 -4.459990
v -1.000000 2.605784 -6.219007
v -1.000000 -2.605784 -4.287638
v -1.000000 2.693260 -6.046654
v 1.000000 -2.605784 -4.287638
v -1.000000 -2.605784 -4.287638
v 1.000000 -2.693260 -4.459990
v -1.000000 -2.693260 -4.459990
v 1.000000 -2.693260 -4.769009
v 1.000000 2.605784 -6.528025
v 1.000000 -2.605784 -4.596657
v 1.000000 2.693260 -6.355673
v -1.000000 -2.693260 -4.769009
v -1.000000 2.605784 -6.528025
v -1.000000 -2.605784 -4.596657
v -1.000000 2.693260 -6.355673
v 1.000000 -2.605784 -4.596657
v -1.000000 -2.605784 -4.596657
v 1.000000 -2.693260 -4.769009
v -1.000000 -2.693260 -4.769009
v 1.000000 -2.693260 -5.078028
v 1.000000 2.605784 -6.837044
v 1.000000 -2.605784 -4.905676
v 1.000000 2.693260 -6.664691
v -1.000000 -2.693260 -5.078028
v -1.000000 2.605784 -6.837044
v -1.000000 -2.605784 -4.905676
v -1.000000 2.693260 -6.664691
v 1.000000 -2.605784 -4.905676
v -1.000000 -2.605784 -4.905676
v 1.000000 -2.693260 -5.078028
v -1.000000 -2.693260 -5.078028
v 1.000000 -2.693260 -5.387047
v 1.000000 2.605784 -7.146063
v 1.000000 -2.605784 -5.214695
v 1.000000 2.693260 -6.973711
v -1.000000 -2.693260 -5.387047
v -1.000000 2.605784 -7.146063
v -1.000000 -2.605784 -5.214695
v -1.000000 2.693260 -6.973711
v 1.000000 -2.605784 -5.214695
v -1.000000 -2.605784 -5.214695
v 1.000000 -2.693260 -5.387047
v -1.000000 -2.693260 -5.387047
v 1.000000 -2.693260 -5.696066
v 1.000000 2.605784 -7.455082
v 1.000000 -2.605784 -5.523714
v 1.000000 2.693260 -7.282730
v -1.000000 -2.693260 -5.696066
v -1.000000 2.605784 -7.455082
v -1.000000 -2.605784 -5.523714
v -1.000000 2.693260 -7.282730
v 1.000000 -2.605784 -5.523714
v -1.000000 -2.605784 -5.523714
v 1.000000 -2.693260 -5.696066
v -1.000000 -2.693260 -5.696066
v 1.000000 -2.693260 -6.005085
v 1.000000 2.605784 -7.764101
v 1.000000 -2.605784 -5.832732
v 1.000000 2.693260 -7.591748
v -1.000000 -2.693260 -6.005085
v -1.000000 2.605784 -7.764101
v -1.000000 -2.605784 -5.832732
v -1.000000 2.693260 -7.591748
v 1.000000 -2.605784 -5.832732
v -1.000000 -2.605784 -5.832732
v 1.000000 -2.693260 -6.005085
v -1.000000 -2.693260 -6.005085
v 1.000000 -2.693260 -6.314104
v 1.000000 2.605784 -8.073120
v 1.000000 -2.605784 -6.141752
v 1.000000 2.693260 -7.900768
v -1.000000 -2.693260 -6.314104
v -1.000000 2.605784 -8.073120
v -1.000000 -2.605784 -6.141752
v -1.000000 2.693260 -7.900768
v 1.000000 -2.605784 -6.141752
v -1.000000 -2.605784 -6.141752
v 1.000000 -2.693260 -6.314104
v -1.000000 -2.693260 -6.314104
v 1.000000 -2.693260 -6.623123
v 1.000000 2.605784 -8.382138
v 1.000000 -2.605784 -6.450770
v 1.000000 2.693260 -8.209786
v -1.000000 -2.693260 -6.623123
v -1.000000 2.605784 -8.382138
v -1.000000 -2.605784 -6.450770
v -1.000000 2.693260 -8.209786
v 1.000000 -2.605784 -6.450770
v -1.000000 -2.605784 -6.450770
v 1.000000 -2.693260 -6.623123
v -1.000000 -2.693260 -6.623123
v 1.000000 -2.693260 -6.932141
v 1.000000 2.605784 -8.691157
v 1.000000 -2.605784 -6.759789
v 1.000000 2.693260 -8.518806
v -1.000000 -2.693260 -6.932141
v -1.000000 2.605784 -8.691157
v -1.000000 -2.605784 -6.759789
v -1.000000 2.693260 -8.518806
v 1.000000 -2.605784 -6.759789
v -1.000000 -2.605784 -6.759789
v 1.000000 -2.693260 -6.932141
v -1.000000 -2.693260 -6.932141
v 1.000000 -2.693260 -7.241161
v 1.000000 2.605784 -9.000176
v 1.000000 -2.605784 -7.068809
v 1.000000 2.693260 -8.827825
v -1.000000 -2.693260 -7.241161
v -1.000000 2.605784 -9.000176
v -1.000000 -2.605784 -7.068809
v -1.000000 2.693260 -8.827825
v 1.000000 -2.605784 -7.068809
v -1.000000 -2.605784 -7.068809
v 1.000000 -2.693260 -7.241161
v -1.000000 -2.693260 -7.241161
v 1.000000 -2.693260 -7.550179
v 1.000000 2.605784 -9.309196
v 1.000000 -2.605784 -7.377827
v 1.000000 2.693260 -9.136843
v -1.000000 -2.693260 -7.550179
v -1.000000 2.605784 -9.309196
v -1.000000 -2.605784 -7.377827
v -1.000000 2.693260 -9.136843
v 1.000000 -2.605784 -7.377827
v -1.000000 -2.605784 -7.377827
v 1.000000 -2.693260 -7.550179
v -1.000000 -2.693260 -7.550179
v 1.000000 -2.693260 -7.859198
v 1.000000 2.605784 -9.618214
v 1.000000 -2.605784 -7.686846
v 1.000000 2.693260 -9.445862
v -1.000000 -2.693260 -7.859198
v -1.000000 2.605784 -9.618214
v -1.000000 -2.605784 -7.686846
v -1.000000 2.693260 -9.445862
v 1.000000 -2.605784 -7.686846
v -1.000000 -2.605784 -7.686846
v 1.000000 -2.693260 -7.859198
v -1.000000 -2.693260 -7.859198
v 1.000000 -2.693260 -8.168218
v 1.000000 2.605784 -9.927234
v 1.000000 -2.605784 -7.995865
v 1.000000 2.693260 -9.754881
v -1.000000 -2.693260 -8.168218
v -1.000000 2.605784 -9.927234
v -1.000000 -2.605784 -7.995865
v -1.000000 2.693260 -9.754881
v 1.000000 -2.605784 -7.995865
v -1.000000 -2.605784 -7.995865
v 1.000000 -2.693260 -8.168218
v -1.000000 -2.693260 -8.168218
v 1.000000 -2.693260 -8.477236
v 1.000000 2.605784 -10.236252
v 1.000000 -2.605784 -8.304884
v 1.000000 2.693260 -10.063900
v -1.000000 -2.693260 -8.477236
v -1.000000 2.605784 -10.236252
v -1.000000 -2.605784 -8.304884
v -1.000000 2.693260 -10.063900
v 1.000000 -2.605784 -8.304884
v -1.000000 -2.605784 -8.304884
v 1.000000 -2.693260 -8.477236
v -1.000000 -2.693260 -8.477236
v 1.000000 -2.693260 -8.786256
v 1.000000 2.605784 -10.545272
v 1.000000 -2.605784 -8.613903
v 1.000000 2.693260 -10.372919
v -1.000000 -2.693260 -8.786256
v -1.000000 2.605784 -10.545272
v -1.000000 -2.605784 -8.613903
v -1.000000 2.693260 -10.372919
v 1.000000 -2.605784 -8.613903
v -1.000000 -2.605784 -8.613903
v 1.000000 -2.693260 -8.786256
v -1.000000 -2.693260 -8.786256
v 1.000000 -2.693260 -9.095274
v 1.000000 2.605784 -10.854290
v 1.000000 -2.605784 -8.922922
v 1.000000 2.693260 -10.681938
v -1.000000 -2.693260 -9.095274
v -1.000000 2.605784 -10.854290
v -1.000000 -2.605784 -8.922922
v -1.000000 2.693260 -10.681938
v 1.000000 -2.605784 -8.922922
v -1.000000 -2.605784 -8.922922
v 1.000000 -2.693260 -9.095274
v -1.000000 -2.693260 -9.095274
v 1.000000 -2.693260 -9.404293
v 1.000000 2.605784 -11.163309
v 1.000000 -2.605784 -9.231940
v 1.000000 2.693260 -10.990956
v -1.000000 -2.693260 -9.404293
v -1.000000 2.605784 -11.163309
v -1.000000 -2.605784 -9.231940
v -1.000000 2.693260 -10.990956
v 1.000000 -2.605784 -9.231940
v -1.000000 -2.605784 -9.231940
v 1.000000 -2.693260 -9.404293
v -1.000000 -2.693260 -9.404293
v 1.000000 -2.693260 -9.713312
v 1.000000 2.605784 -11.472328
v 1.000000 -2.605784 -9.540960
v 1.000000 2.693260 -11.299976
v -1.000000 -2.693260 -9.713312
v -1.000000 2.605784 -11.472328
v -1.000000 -2.605784 -9.540960
v -1.000000 2.693260 -11.299976
v 1.000000 -2.605784 -9.540960
v -1.000000 -2.605784 -9.540960
v 1.000000 -2.693260 -9.713312
v -1.000000 -2.693260 -9.713312
v 1.000000 -2.693260 -10.022331
v 1.000000 2.605784 -11.781347
v 1.000000 -2.605784 -9.849978
v 1.000000 2.693260 -11.608994
v -1.000000 -2.693260 -10.022331
v -1.000000 2.605784 -11.781347
v -1.000000 -2.605784 -9.849978
v -1.000000 2.693260 -11.608994
v 1.000000 -2.605784 -9.849978
v -1.000000 -2.605784 -9.849978
v 1.000000 -2.693260 -10.022331
v -1.000000 -2.693260 -10.022331
v 1.000000 -2.693260 -10.331350
v 1.000000 2.605784 -12.090366
v 1.000000 -2.605784 -10.158998
v 1.000000 2.693260 -11.918014
v -1.000000 -2.693260 -10.331350
v -1.000000 2.605784 -12.090366
v -1.000000 -2.605784 -10.158998
v -1.000000 2.693260 -11.918014
v 1.000000 -2.605784 -10.158998
v -1.000000 -2.605784 -10.158998
v 1.000000 -2.693260 -10.331350
v -1.000000 -2.693260 -10.331350
v 1.000000 -2.693260 -10.640369
v 1.000000 2.605784 -12.399384
v 1.000000 -2.605784 -10.468017
v 1.000000 2.693260 -12.227033
v -1.000000 -2.693260 -10.640369
v -1.000000 2.605784 -12.399384
v -1.000000 -2.605784 -10.468017
v -1.000000 2.693260 -12.227033
v 1.000000 -2.605784 -10.468017
v -1.000000 -2.605784 -10.468017
v 1.000000 -2.693260 -10.640369
v -1.000000 -2.693260 -10.640369
v 1.000000 -2.693260 -10.949388
v 1.000000 2.605784 -12.708404
v 1.000000 -2.605784 -10.777036
v 1.000000 2.693260 -12.536052
v -1.000000 -2.693260 -10.949388
v -1.000000 2.605784 -12.708404
v -1.000000 -2.605784 -10.777036
v -1.000000 2.693260 -12.536052
v 1.000000 -2.605784 -10.777036
v -1.000000 -2.605784 -10.777036
v 1.000000 -2.693260 -10.949388
v -1.000000 -2.693260 -10.949388
v 1.000000 -2.693260 -11.258407
v 1.000000 2.605784 -13.017423
v 1.000000 -2.605784 -11.086054
v 1.000000 2.693260 -12.845070
v -1.000000 -2.693260 -11.258407
v -1.000000 2.605784 -13.017423
v -1.000000 -2.605784 -11.086054
v -1.000000 2.693260 -12.845070
v 1.000000 -2.605784 -11.086054
v -1.000000 -2.605784 -11.086054
v 1.000000 -2.693260 -11.258407
v -1.000000 -2.693260 -11.258407
vn -0.0000 -1.0000 -0.0000
vn -0.0000 0.3150 0.9491
vn -1.0000 -0.0000 -0.0000
vn -0.0000 0.8917 -0.4526
vn 1.0000 -0.0000 -0.0000
vn -0.0000 -0.3150 -0.9491
vn -0.0000 -0.8917 0.4526
vt 0.625000 0.500000
vt 0.625000 0.250000
vt 0.375000 0.750000
vt 0.625000 0.750000
vt 0.625000 1.000000
vt 0.375000 1.000000
vt 0.375000 0.000000
vt 0.625000 0.000000
vt 0.375000 0.250000
vt 0.125000 0.500000
vt 0.375000 0.500000
vt 0.125000 0.750000
vt 0.875000 0.500000
vt 0.875000 0.750000
s 0
usemtl Material
f 1/1/1 11/1/1 12/2/1 5/2/1
f 4/3/2 8/6/2 7/5/2 3/4/2
f 8/7/3 6/9/3 5/2/3 7/8/3
f 6/10/4 8/12/4 4/3/4 2/11/4
f 2/11/5 4/3/5 3/4/5 1/1/5
f 6/9/6 2/11/6 1/1/6 5/2/6
f 11/1/7 9/4/7 10/14/7 12/13/7
f 7/5/1 10/5/1 9/4/1 3/4/1
f 5/2/1 12/2/1 10/8/1 7/8/1
f 3/4/1 9/4/1 11/1/1 1/1/1
f 13/1/1 23/1/1 24/2/1 17/2/1
f 16/3/2 20/6/2 19/5/2 15/4/2
f 20/7/3 18/9/3 17/2/3 19/8/3
f 18/10/4 20/12/4 16/3/4 14/11/4
f 14/11/5 16/3/5 15/4/5 13/1/5
f 18/9/6 14/11/6 13/1/6 17/2/6
f 23/1/7 21/4/7 22/14/7 24/13/7
f 19/5/1 22/5/1 21/4/1 15/4/1
f 17/2/1 24/2/1 22/8/1 19/8/1
f 15/4/1 21/4/1 23/1/1 13/1/1
f 25/1/1 35/1/1 36/2/1 29/2/1
f 28/3/2 32/6/2 31/5/2 27/4/2
f 32/7/3 30/9/3 29/2/3 31/8/3
f 30/10/4 32/12/4 28/3/4 26/11/4
f 26/11/5 28/3/5 27/4/5 25/1/5
f 30/9/6 26/11/6 25/1/6 29/2/6
f 35/1/7 33/4/7 34/14/7 36/13/7
f 31/5/1 34/5/1 33/4/1 27/4/1
f 29/2/1 36/2/1 34/8/1 31/8/1
f 27/4/1 33/4/1 35/1/1 25/1/1
f 37/1/1 47/1/1 48/2/1 41/2/1
f 40/3/2 44/6/2 43/5/2 39/4/2
f 44/7/3 42/9/3 41/2/3 43/8/3
f 42/10/4 44/12/4 40/3/4 38/11/4
f 38/11/5 40/3/5 39/4/5 37/1/5
f 42/9/6 38/11/6 37/1/6 41/2/6
f 47/1/7 45/4/7 46/14/7 48/13/7
f 43/5/1 46/5/1 45/4/1 39/4/1
f 41/2/1 48/2/1 46/8/1 43/8/1
f 39/4/1 45/4/1 47/1/1 37/1/1
f 49/1/1 59/1/1 60/2/1 53/2/1
f 52/3/2 56/6/2 55/5/2 51/4/2
f 56/7/3 54/9/3 53/2/3 55/8/3
f 54/10/4 56/12/4 52/3/4 50/11/4
f 50/11/5 52/3/5 51/4/5 49/1/5
f 54/9/6 50/11/6 49/1/6 53/2/6
f 59/1/7 57/4/7 58/14/7 60/13/7
f 55/5/1 58/5/1 57/4/1 51/4/1
f 53/2/1 60/2/1 58/8/1 55/8/1
f 51/4/1 57/4/1 59/1/1 49/1/1
f 61/1/1 71/1/1 72/2/1 65/2/1
f 64/3/2 68/6/2 67/5/2 63/4/2
f 68/7/3 66/9/3 65/2/3 67/8/3
f 66/10/4 68/12/4 64/3/4 62/11/4
f 62/11/5 64/3/5 63/4/5 61/1/5
f 66/9/6 62/11/6 61/1/6 65/2/6
f 71/1/7 69/4/7 70/14/7 72/13/7
f 67/5/1 70/5/1 69/4/1 63/4/1
f 65/2/1 72/2/1 70/8/1 67/8/1
f 63/4/1 69/4/1 71/1/1 61/1/1
f 73/1/1 83/1/1 84/2/1 77/2/1
f 76/3/2 80/6/2 79/5/2 75/4/2
f 80/7/3 78/9/3 77/2/3 79/8/3
f 78/10/4 80/12/4 76/3/4 74/11/4
f 74/11/5 76/3/5 75/4/5 73/1/5
f 78/9/6 74/11/6 73/1/6 77/2/6
f 83/1/7 81/4/7 82/14/7 84/13/7
f 79/5/1 82/5/1 81/4/1 75/4/1
f 77/2/1 84/2/1 82/8/1 79/8/1
f 75/4/1 81/4/1 83/1/1 73/1/1
f 85/1/1 95/1/1 96/2/1 89/2/1
f 88/3/2 92/6/2 91/5/2 87/4/2
f 92/7/3 90/9/3 89/2/3 91/8/3
f 90/10/4 92/12/4 88/3/4 86/11/4
f 86/11/5 88/3/5 87/4/5 85/1/5
f 90/9/6 86/11/6 85/1/6 89/2/6
f 95/1/7 93/4/7 94/14/7 96/13/7
f 91/5/1 94/5/1 93/4/1 87/4/1
f 89/2/1 96/2/1 94/8/1 91/8/1
f 87/4/1 93/4/1 95/1/1 85/1/1
f 97/1/1 107/1/1 108/2/1 101/2/1
f 100/3/2 104/6/2 103/5/2 99/4/2
f 104/7/3 102/9/3 101/2/3 103/8/3
f 102/10/4 104/12/4 100/3/4 98/11/4
f 98/11/5 100/3/5 99/4/5 97/1/5
f 102/9/6 98/11/6 97/1/6 101/2/6
f 107/1/7 105/4/7 106/14/7 108/13/7
f 103/5/1 106/5/1 105/4/1 99/4/1
f 101/2/1 108/2/1 106/8/1 103/8/1
f 99/4/1 105/4/1 107/1/1 97/1/1
f 109/1/1 119/1/1 120/2/1 113/2/1
f 112/3/2 116/6/2 115/5/2 111/4/2
f 116/7/3 114/9/3 113/2/3 115/8/3
f 114/10/4 116/12/4 112/3/4 110/11/4
f 110/11/5 112/3/5 111/4/5 109/1/5
f 114/9/6 110/11/6 109/1/6 113/2/6
f 119/1/7 117/4/7 118/14/7 120/13/7
f 115/5/1 118/5/1 117/4/1 111/4/1
f 113/2/1 120/2/1 118/8/1 115/8/1
f 111/4/1 117/4/1 119/1/1 109/1/1
f 121/1/1 131/1/1 132/2/1 125/2/1
f 124/3/2 128/6/2 127/5/2 123/4/2
f 128/7/3 126/9/3 125/2/3 127/8/3
f 126/10/4 128/12/4 124/3/4 122/11/4
f 122/11/5 124/3/5 123/4/5 121/1/5
f 126/9/6 122/11/6 121/1/6 125/2/6
f 131/1/7 129/4/7 130/14/7 132/13/7
f 127/5/1 130/5/1 129/4/1 123/4/1
f 125/2/1 132/2/1 130/8/1 127/8/1
f 123/4/1 129/4/1 131/1/1 121/1/1
f 133/1/1 143/1/1 144/2/1 137/2/1
f 136/3/2 140/6/2 139/5/2 135/4/2
f 140/7/3 138/9/3 137/2/3 139/8/3
f 138/10/4 140/12/4 136/3/4 134/11/4
f 134/11/5 136/3/5 135/4/5 133/1/5
f 138/9/6 134/11/6 133/1/6 137/2/6
f 143/1/7 141/4/7 142/14/7 144/13/7
f 139/5/1 142/5/1 141/4/1 135/4/1
f 137/2/1 144/2/1 142/8/1 139/8/1
f 135/4/1 141/4/1 143/1/1 133/1/1
f 145/1/1 155/1/1 156/2/1 149/2/1
f 148/3/2 152/6/2 151/5/2 147/4/2
f 152/7/3 150/9/3 149/2/3 151/8/3
f 150/10/4 152/12/4 148/3/4 146/11/4
f 146/11/5 148/3/5 147/4/5 145/1/5
f 150/9/6 146/11/6 145/1/6 149/2/6
f 155/1/7 153/4/7 154/14/7 156/13/7
f 151/5/1 154/5/1 153/4/1 147/4/1
f 149/2/1 156/2/1 154/8/1 151/8/1
f 147/4/1 153/4/1 155/1/1 145/1/1
f 157/1/1 167/1/1 168/2/1 161/2/1
f 160/3/2 164/6/2 163/5/2 159/4/2
f 164/7/3 162/9/3 161/2/3 163/8/3
f 162/10/4 164/12/4 160/3/4 158/11/4
f 158/11/5 160/3/5 159/4/5 157/1/5
f 162/9/6 158/11/6 157/1/6 161/2/6
f 167/1/7 165/4/7 166/14/7 168/13/7
f 163/5/1 166/5/1 165/4/1 159/4/1
f 161/2/1 168/2/1 166/8/1 163/8/1
f 159/4/1 165/4/1 167/1/1 157/1/1
f 169/1/1 179/1/1 180/2/1 173/2/1
f 172/3/2 176/6/2 175/5/2 171/4/2
f 176/7/3 174/9/3 173/2/3 175/8/3
f 174/10/4 176/12/4 172/3/4 170/11/4
f 170/11/5 172/3/5 171/4/5 169/1/5
f 174/9/6 170/11/6 169/1/6 173/2/6
f 179/1/7 177/4/7 178/14/7 180/13/7
f 175/5/1 178/5/1 177/4/1 171/4/1
f 173/2/1 180/2/1 178/8/1 175/8/1
f 171/4/1 177/4/1 179/1/1 169/1/1
f 181/1/1 191/1/1 192/2/1 185/2/1
f 184/3/2 188/6/2 187/5/2 183/4/2
f 188/7/3 186/9/3 185/2/3 187/8/3
f 186/10/4 188/12/4 184/3/4 182/11/4
f 182/11/5 184/3/5 183/4/5 181/1/5
f 186/9/6 182/11/6 181/1/6 185/2/6
f 191/1/7 189/4/7 190/14/7 192/13/7
f 187/5/1 190/5/1 189/4/1 183/4/1
f 185/2/1 192/2/1 190/8/1 187/8/1
f 183/4/1 189/4/1 191/1/1 181/1/1
f 193/1/1 203/1/1 204/2/1 197/2/1
f 196/3/2 200/6/2 199/5/2 195/4/2
f 200/7/3 198/9/3 197/2/3 199/8/3
f 198/10/4 200/12/4 196/3/4 194/11/4
f 194/11/5 196/3/5 195/4/5 193/1/5
f 198/9/6 194/11/6 193/1/6 197/2/6
f 203/1/7 201/4/7 202/14/7 204/13/7
f 199/5/1 202/5/1 201/4/1 195/4/1
f 197/2/1 204/2/1 202/8/1 199/8/1
f 195/4/1 201/4/1 203/1/1 193/1/1
f 205/1/1 215/1/1 216/2/1 209/2/1
f 208/3/2 212/6/2 211/5/2 207/4/2
f 212/7/3 210/9/3 209/2/3 211/8/3
f 210/10/4 212/12/4 208/3/4 206/11/4
f 206/11/5 208/3/5 207/4/5 205/1/5
f 210/9/6 206/11/6 205/1/6 209/2/6
f 215/1/7 213/4/7 214/14/7 216/13/7
f 211/5/1 214/5/1 213/4/1 207/4/1
f 209/2/1 216/2/1 214/8/1 211/8/1
f 207/4/1 213/4/1 215/1/1 205/1/1
f 217/1/1 227/1/1 228/2/1 221/2/1
f 220/3/2 224/6/2 223/5/2 219/4/2
f 224/7/3 222/9/3 221/2/3 223/8/3
f 222/10/4 224/12/4 220/3/4 218/11/4
f 218/11/5 220/3/5 219/4/5 217/1/5
f 222/9/6 218/11/6 217/1/6 221/2/6
f 227/1/7 225/4/7 226/14/7 228/13/7
f 223/5/1 226/5/1 225/4/1 219/4/1
f 221/2/1 228/2/1 226/8/1 223/8/1
f 219/4/1 225/4/1 227/1/1 217/1/1
f 229/1/1 239/1/1 240/2/1 233/2/1
f 232/3/2 236/6/2 235/5/2 231/4/2
f 236/7/3 234/9/3 233/2/3 235/8/3
f 234/10/4 236/12/4 232/3/4 230/11/4
f 230/11/5 232/3/5 231/4/5 229/1/5
f 234/9/6 230/11/6 229/1/6 233/2/6
f 239/1/7 237/4/7 238/14/7 240/13/7
f 235/5/1 238/5/1 237/4/1 231/4/1
f 233/2/1 240/2/1 238/8/1 235/8/1
f 231/4/1 237/4/1 239/1/1 229/1/1
f 241/1/1 251/1/1 252/2/1 245/2/1
f 244/3/2 248/6/2 247/5/2 243/4/2
f 248/7/3 246/9/3 245/2/3 247/8/3
f 246/10/4 248/12/4 244/3/4 242/11/4
f 242/11/5 244/3/5 243/4/5 241/1/5
f 246/9/6 242/11/6 241/1/6 245/2/6
f 251/1/7 249/4/7 250/14/7 252/13/7
f 247/5/1 250/5/1 249/4/1 243/4/1
f 245/2/1 252/2/1 250/8/1 247/8/1
f 243/4/1 249/4/1 251/1/1 241/1/1
f 253/1/1 263/1/1 264/2/1 257/2/1
f 256/3/2 260/6/2 259/5/2 255/4/2
f 260/7/3 258/9/3 257/2/3 259/8/3
f 258/10/4 260/12/4 256/3/4 254/11/4
f 254/11/5 256/3/5 255/4/5 253/1/5
f 258/9/6 254/11/6 253/1/6 257/2/6
f 263/1/7 261/4/7 262/14/7 264/13/7
f 259/5/1 262/5/1 261/4/1 255/4/1
f 257/2/1 264/2/1 262/8/1 259/8/1
f 255/4/1 261/4/1 263/1/1 253/1/1
f 265/1/1 275/1/1 276/2/1 269/2/1
f 268/3/2 272/6/2 271/5/2 267/4/2
f 272/7/3 270/9/3 269/2/3 271/8/3
f 270/10/4 272/12/4 268/3/4 266/11/4
f 266/11/5 268/3/5 267/4/5 265/1/5
f 270/9/6 266/11/6 265/1/6 269/2/6
f 275/1/7 273/4/7 274/14/7 276/13/7
f 271/5/1 274/5/1 273/4/1 267/4/1
f 269/2/1 276/2/1 274/8/1 271/8/1
f 267/4/1 273/4/1 275/1/1 265/1/1
f 277/1/1 287/1/1 288/2/1 281/2/1
f 280/3/2 284/6/2 283/5/2 279/4/2
f 284/7/3 282/9/3 281/2/3 283/8/3
f 282/10/4 284/12/4 280/3/4 278/11/4
f 278/11/5 280/3/5 279/4/5 277/1/5
f 282/9/6 278/11/6 277/1/6 281/2/6
f 287/1/7 285/4/7 286/14/7 288/13/7
f 283/5/1 286/5/1 285/4/1 279/4/1
f 281/2/1 288/2/1 286/8/1 283/8/1
f 279/4/1 285/4/1 287/1/1 277/1/1
f 289/1/1 299/1/1 300/2/1 293/2/1
f 292/3/2 296/6/2 295/5/2 291/4/2
f 296/7/3 294/9/3 293/2/3 295/8/3
f 294/10/4 296/12/4 292/3/4 290/11/4
f 290/11/5 292/3/5 291/4/5 289/1/5
f 294/9/6 290/11/6 289/1/6 293/2/6
f 299/1/7 297/4/7 298/14/7 300/13/7
f 295/5/1 298/5/1 297/4/1 291/4/1
f 293/2/1 300/2/1 298/8/1 295/8/1
f 291/4/1 297/4/1 299/1/1 289/1/1
f 301/1/1 311/1/1 312/2/1 305/2/1
f 304/3/2 308/6/2 307/5/2 303/4/2
f 308/7/3 306/9/3 305/2/3 307/8/3
f 306/10/4 308/12/4 304/3/4 302/11/4
f 302/11/5 304/3/5 303/4/5 301/1/5
f 306/9/6 302/11/6 301/1/6 305/2/6
f 311/1/7 309/4/7 310/14/7 312/13/7
f 307/5/1 310/5/1 309/4/1 303/4/1
f 305/2/1 312/2/1 310/8/1 307/8/1
f 303/4/1 309/4/1 311/1/1 301/1/1
f 313/1/1 323/1/1 324/2/1 317/2/1
f 316/3/2 320/6/2 319/5/2 315/4/2
f 320/7/3 318/9/3 317/2/3 319/8/3
f 318/10/4 320/12/4 316/3/4 314/11/4
f 314/11/5 316/3/5 315/4/5 313/1/5
f 318/9/6 314/11/6 313/1/6 317/2/6
f 323/1/7 321/4/7 322/14/7 324/13/7
f 319/5/1 322/5/1 321/4/1 315/4/1
f 317/2/1 324/2/1 322/8/1 319/8/1
f 315/4/1 321/4/1 323/1/1 313/1/1
f 325/1/1 335/1/1 336/2/1 329/2/1
f 328/3/2 332/6/2 331/5/2 327/4/2
f 332/7/3 330/9/3 329/2/3 331/8/3
f 330/10/4 332/12/4 328/3/4 326/11/4
f 326/11/5 328/3/5 327/4/5 325/1/5
f 330/9/6 326/11/6 325/1/6 329/2/6
f 335/1/7 333/4/7 334/14/7 336/13/7
f 331/5/1 334/5/1 333/4/1 327/4/1
f 329/2/1 336/2/1 334/8/1 331/8/1
f 327/4/1 333/4/1 335/1/1 325/1/1
f 337/1/1 347/1/1 348/2/1 341/2/1
f 340/3/2 344/6/2 343/5/2 339/4/2
f 344/7/3 342/9/3 341/2/3 343/8/3
f 342/10/4 344/12/4 340/3/4 338/11/4
f 338/11/5 340/3/5 339/4/5 337/1/5
f 342/9/6 338/11/6 337/1/6 341/2/6
f 347/1/7 345/4/7 346/14/7 348/13/7
f 343/5/1 346/5/1 345/4/1 339/4/1
f 341/2/1 348/2/1 346/8/1 343/8/1
f 339/4/1 345/4/1 347/1/1 337/1/1
f 349/1/1 359/1/1 360/2/1 353/2/1
f 352/3/2 356/6/2 355/5/2 351/4/2
f 356/7/3 354/9/3 353/2/3 355/8/3
f 354/10/4 356/12/4 352/3/4 350/11/4
f 350/11/5 352/3/5 351/4/5 349/1/5
f 354/9/6 350/11/6 349/1/6 353/2/6
f 359/1/7 357/4/7 358/14/7 360/13/7
f 355/5/1 358/5/1 357/4/1 351/4/1
f 353/2/1 360/2/1 358/8/1 355/8/1
f 351/4/1 357/4/1 359/1/1 349/1/1
f 361/1/1 371/1/1 372/2/1 365/2/1
f 364/3/2 368/6/2 367/5/2 363/4/2
f 368/7/3 366/9/3 365/2/3 367/8/3
f 366/10/4 368/12/4 364/3/4 362/11/4
f 362/11/5 364/3/5 363/4/5 361/1/5
f 366/9/6 362/11/6 361/1/6 365/2/6
f 371/1/7 369/4/7 370/14/7 372/13/7
f 367/5/1 370/5/1 369/4/1 363/4/1
f 365/2/1 372/2/1 370/8/1 367/8/1
f 363/4/1 369/4/1 371/1/1 361/1/1
f 373/1/1 383/1/1 384/2/1 377/2/1
f 376/3/2 380/6/2 379/5/2 375/4/2
f 380/7/3 378/9/3 377/2/3 379/8/3
f 378/10/4 380/12/4 376/3/4 374/11/4
f 374/11/5 376/3/5 375/4/5 373/1/5
f 378/9/6 374/11/6 373/1/6 377/2/6
f 383/1/7 381/4/7 382/14/7 384/13/7
f 379/5/1 382/5/1 381/4/1 375/4/1
f 377/2/1 384/2/1 382/8/1 379/8/1
f 375/4/1 381/4/1 383/1/1 373/1/1
f 385/1/1 395/1/1 396/2/1 389/2/1
f 388/3/2 392/6/2 391/5/2 387/4/2
f 392/7/3 390/9/3 389/2/3 391/8/3
f 390/10/4 392/12/4 388/3/4 386/11/4
f 386/11/5 388/3/5 387/4/5 385/1/5
f 390/9/6 386/11/6 385/1/6 389/2/6
f 395/1/7 393/4/7 394/14/7 396/13/7
f 391/5/1 394/5/1 393/4/1 387/4/1
f 389/2/1 396/2/1 394/8/1 391/8/1
f 387/4/1 393/4/1 395/1/1 385/1/1
f 397/1/1 407/1/1 408/2/1 401/2/1
f 400/3/2 404/6/2 403/5/2 399/4/2
f 404/7/3 402/9/3 401/2/3 403/8/3
f 402/10/4 404/12/4 400/3/4 398/11/4
f 398/11/5 400/3/5 399/4/5 397/1/5
f 402/9/6 398/11/6 397/1/6 401/2/6
f 407/1/7 405/4/7 406/14/7 408/13/7
f 403/5/1 406/5/1 405/4/1 399/4/1
f 401/2/1 408/2/1 406/8/1 403/8/1
f 399/4/1 405/4/1 407/1/1 397/1/1
f 409/1/1 419/1/1 420/2/1 413/2/1
f 412/3/2 416/6/2 415/5/2 411/4/2
f 416/7/3 414/9/3 413/2/3 415/8/3
f 414/10/4 416/12/4 412/3/4 410/11/4
f 410/11/5 412/3/5 411/4/5 409/1/5
f 414/9/6 410/11/6 409/1/6 413/2/6
f 419/1/7 417/4/7 418/14/7 420/13/7
f 415/5/1 418/5/1 417/4/1 411/4/1
f 413/2/1 420/2/1 418/8/1 415/8/1
f 411/4/1 417/4/1 419/1/1 409/1/1
f 421/1/1 431/1/1 432/2/1 425/2/1
f 424/3/2 428/6/2 427/5/2 423/4/2
f 428/7/3 426/9/3 425/2/3 427/8/3
f 426/10/4 428/12/4 424/3/4 422/11/4
f 422/11/5 424/3/5 423/4/5 421/1/5
f 426/9/6 422/11/6 421/1/6 425/2/6
f 431/1/7 429/4/7 430/14/7 432/13/7
f 427/5/1 430/5/1 429/4/1 423/4/1
f 425/2/1 432/2/1 430/8/1 427/8/1
f 423/4/1 429/4/1 431/1/1 421/1/1
f 433/1/1 443/1/1 444/2/1 437/2/1
f 436/3/2 440/6/2 439/5/2 435/4/2
f 440/7/3 438/9/3 437/2/3 439/8/3
f 438/10/4 440/12/4 436/3/4 434/11/4
f 434/11/5 436/3/5 435/4/5 433/1/5
f 438/9/6 434/11/6 433/1/6 437/2/6
f 443/1/7 441/4/7 442/14/7 444/13/7
f 439/5/1 442/5/1 441/4/1 435/4/1
f 437/2/1 444/2/1 442/8/1 439/8/1
f 435/4/1 441/4/1 443/1/1 433/1/1
f 445/1/1 455/1/1 456/2/1 449/2/1
f 448/3/2 452/6/2 451/5/2 447/4/2
f 452/7/3 450/9/3 449/2/3 451/8/3
f 450/10/4 452/12/4 448/3/4 446/11/4
f 446/11/5 448/3/5 447/4/5 445/1/5
f 450/9/6 446/11/6 445/1/6 449/2/6
f 455/1/7 453/4/7 454/14/7 456/13/7
f 451/5/1 454/5/1 453/4/1 447/4/1
f 449/2/1 456/2/1 454/8/1 451/8/1
f 447/4/1 453/4/1 455/1/1 445/1/1
f 457/1/1 467/1/1 468/2/1 461/2/1
f 460/3/2 464/6/2 463/5/2 459/4/2
f 464/7/3 462/9/3 461/2/3 463/8/3
f 462/10/4 464/12/4 460/3/4 458/11/4
f 458/11/5 460/3/5 459/4/5 457/1/5
f 462/9/6 458/11/6 457/1/6 461/2/6
f 467/1/7 465/4/7 466/14/7 468/13/7
f 463/5/1 466/5/1 465/4/1 459/4/1
f 461/2/1 468/2/1 466/8/1 463/8/1
f 459/4/1 465/4/1 467/1/1 457/1/1
f 469/1/1 479/1/1 480/2/1 473/2/1
f 472/3/2 476/6/2 475/5/2 471/4/2
f 476/7/3 474/9/3 473/2/3 475/8/3
f 474/10/4 476/12/4 472/3/4 470/11/4
f 470/11/5 472/3/5 471/4/5 469/1/5
f 474/9/6 470/11/6 469/1/6 473/2/6
f 479/1/7 477/4/7 478/14/7 480/13/7
f 475/5/1 478/5/1 477/4/1 471/4/1
f 473/2/1 480/2/1 478/8/1 475/8/1
f 471/4/1 477/4/1 479/1/1 469/1/1
